<?xml version="1.0" standalone="no"?>
<!DOCTYPE svg PUBLIC "-//W3C//DTD SVG 20010904//EN"
 "http://www.w3.org/TR/2001/REC-SVG-20010904/DTD/svg10.dtd">
<svg version="1.0" xmlns="http://www.w3.org/2000/svg"
 width="2560.000000pt" height="2560.000000pt" viewBox="0 0 2560.000000 2560.000000"
 preserveAspectRatio="xMidYMid meet">

<g transform="translate(0.000000,2560.000000) scale(0.100000,-0.100000)"
fill="#000000" stroke="none">
<path d="M11988 21117 c-24 -19 -23 -40 7 -128 41 -119 122 -422 154 -574 96
-456 133 -821 134 -1355 2 -448 -13 -530 -161 -880 -70 -165 -118 -298 -110
-305 2 -2 33 5 68 16 120 37 244 51 400 46 250 -9 397 -54 635 -197 98 -59
167 -87 236 -96 l53 -7 -18 28 c-10 16 -56 76 -101 134 -155 200 -206 290
-259 458 -64 206 -91 419 -83 668 6 197 23 322 69 520 39 170 46 299 24 435
-42 246 -151 468 -351 710 -125 152 -461 482 -520 510 -59 29 -151 37 -177 17z"/>
<path d="M11652 19744 c-112 -56 -203 -175 -366 -479 -399 -742 -598 -1280
-736 -1989 -30 -154 -75 -484 -82 -596 l-3 -55 35 3 c58 5 230 50 315 83 165
63 359 196 462 316 73 85 109 139 228 338 59 99 120 197 136 217 16 20 29 39
29 41 0 3 -16 30 -35 62 -40 67 -88 206 -117 337 -29 136 -36 434 -14 588 29
196 65 335 156 611 123 369 143 495 87 534 -29 20 -35 19 -95 -11z"/>
<path d="M14834 17738 c-9 -14 -6 -151 6 -328 20 -283 9 -545 -30 -709 l-19
-76 48 -50 c71 -73 98 -123 142 -258 55 -169 154 -346 267 -476 l39 -45 6 78
c4 43 19 146 34 229 23 126 27 180 27 317 -1 264 -50 568 -139 866 -62 203
-334 528 -381 452z"/>
<path d="M9622 16880 c-60 -60 -163 -306 -217 -519 -27 -109 -87 -454 -110
-641 -23 -189 -30 -419 -15 -535 6 -55 34 -187 61 -293 27 -106 49 -204 49
-217 0 -13 4 -26 9 -29 13 -8 21 70 31 297 15 340 45 410 337 793 59 78 123
167 142 198 l34 56 -16 53 c-9 28 -42 201 -72 382 -73 428 -73 429 -96 459
-30 39 -97 37 -137 -4z"/>
<path d="M11995 16265 c-34 -33 -35 -97 -3 -119 23 -16 73 -21 103 -10 8 4 22
19 30 35 20 37 6 73 -37 99 -43 26 -64 25 -93 -5z"/>
<path d="M12625 16085 c-34 -34 -34 -93 0 -125 21 -20 31 -22 72 -16 114 15
128 131 18 156 -58 14 -63 13 -90 -15z"/>
<path d="M13439 15941 c-20 -20 -29 -39 -29 -61 0 -22 9 -41 29 -61 36 -36 79
-38 117 -6 21 19 27 32 27 67 0 83 -85 119 -144 61z"/>
<path d="M11076 15694 c-23 -22 -30 -62 -17 -90 23 -51 119 -59 154 -13 25 35
16 62 -31 94 -42 29 -83 32 -106 9z"/>
<path d="M11814 15682 c-39 -26 -44 -93 -9 -127 31 -31 66 -32 101 -1 22 18
28 32 27 60 -1 50 -27 76 -72 76 -20 0 -41 -4 -47 -8z"/>
<path d="M12721 15444 c-45 -58 -10 -144 59 -144 71 0 109 99 57 148 -34 32
-89 30 -116 -4z"/>
<path d="M14430 15213 c-50 -19 -64 -71 -33 -123 31 -54 85 -64 132 -24 34 29
38 51 16 94 -26 50 -69 70 -115 53z"/>
<path d="M13419 15179 c-54 -20 -61 -100 -12 -139 31 -24 71 -25 120 -5 54 23
73 44 73 80 0 50 -34 75 -101 74 -30 0 -66 -5 -80 -10z"/>
<path d="M12062 15034 c-16 -11 -22 -25 -22 -53 0 -46 24 -71 68 -71 60 0 85
81 36 119 -32 25 -52 26 -82 5z"/>
<path d="M11291 14984 c-12 -15 -21 -37 -21 -49 0 -36 37 -75 71 -75 37 0 79
39 79 73 0 40 -36 77 -75 77 -24 0 -39 -7 -54 -26z"/>
<path d="M10593 14970 c-74 -30 -49 -154 30 -154 51 0 77 27 77 79 0 61 -52
98 -107 75z"/>
<path d="M12885 14808 c-32 -17 -45 -39 -45 -78 0 -54 36 -90 91 -90 35 0 47
6 81 40 34 33 39 44 34 67 -11 44 -50 73 -99 73 -23 0 -51 -6 -62 -12z"/>
<path d="M16658 14760 c-43 -26 -47 -132 -8 -244 35 -103 51 -214 51 -361 0
-198 -31 -352 -112 -565 -38 -99 -39 -117 -21 -410 7 -113 17 -295 22 -405 5
-110 16 -222 23 -250 l13 -49 61 114 c176 333 236 497 290 795 25 142 25 604
0 750 -43 247 -133 524 -194 595 -29 33 -41 40 -71 40 -20 0 -45 -5 -54 -10z"/>
<path d="M13915 14438 c-51 -29 -62 -99 -22 -136 52 -49 137 -15 137 54 0 46
-9 63 -41 79 -33 18 -47 18 -74 3z"/>
<path d="M11631 14394 c-43 -55 -11 -134 55 -134 47 0 70 14 82 50 13 36 -1
86 -28 100 -36 20 -87 12 -109 -16z"/>
<path d="M14449 14321 c-53 -54 -33 -130 40 -152 50 -15 84 -6 101 26 30 55
10 109 -52 141 -39 20 -56 17 -89 -15z"/>
<path d="M10827 14280 c-34 -27 -38 -89 -7 -120 30 -30 83 -27 109 6 59 75
-28 172 -102 114z"/>
<path d="M12436 14148 c-40 -56 -6 -132 59 -132 46 0 75 31 75 80 0 47 -29 74
-79 74 -30 0 -44 -6 -55 -22z"/>
<path d="M10250 14010 c-25 -25 -25 -51 -2 -78 27 -31 55 -35 85 -11 29 22 37
75 15 97 -19 19 -76 14 -98 -8z"/>
<path d="M13300 14010 c-28 -28 -26 -75 5 -105 27 -28 42 -30 79 -14 27 13 49
60 39 87 -19 53 -84 71 -123 32z"/>
<path d="M12117 13628 c-26 -21 -38 -63 -26 -98 25 -69 123 -69 147 0 13 36
-1 86 -28 100 -26 14 -73 12 -93 -2z"/>
<path d="M14940 13552 c-15 -12 -24 -33 -27 -64 -5 -40 -2 -50 20 -72 20 -20
36 -26 71 -26 111 0 149 125 51 166 -46 19 -88 18 -115 -4z"/>
<path d="M12884 13548 c-48 -23 -59 -104 -19 -143 48 -49 145 -17 145 48 0 82
-60 127 -126 95z"/>
<path d="M11257 13482 c-37 -40 -6 -112 47 -112 50 0 80 62 52 105 -20 31 -74
34 -99 7z"/>
<path d="M13891 13404 c-26 -33 -28 -95 -3 -117 68 -61 193 10 152 87 -30 57
-115 74 -149 30z"/>
<path d="M10439 13324 c-47 -19 -61 -50 -44 -91 34 -82 129 -63 151 29 4 21 0
33 -20 52 -29 30 -37 31 -87 10z"/>
<path d="M12995 12905 c-18 -17 -25 -35 -25 -63 0 -59 47 -91 105 -72 57 19
68 87 22 138 -27 30 -71 29 -102 -3z"/>
<path d="M11456 12829 c-52 -41 -23 -129 44 -129 67 0 96 88 44 129 -15 12
-34 21 -44 21 -10 0 -29 -9 -44 -21z"/>
<path d="M14951 12814 c-45 -57 -11 -134 59 -134 30 0 43 6 59 26 45 57 11
134 -59 134 -30 0 -43 -6 -59 -26z"/>
<path d="M10081 12744 c-26 -33 -27 -85 -3 -107 9 -8 33 -18 52 -22 81 -15
123 76 59 129 -40 34 -81 34 -108 0z"/>
<path d="M12181 12703 c-12 -10 -24 -35 -28 -55 -5 -32 -1 -41 25 -68 37 -36
71 -39 107 -7 56 48 22 147 -51 147 -17 0 -41 -8 -53 -17z"/>
<path d="M14155 12658 c-29 -16 -35 -28 -35 -69 0 -60 53 -90 114 -65 23 10
37 23 42 41 17 69 -59 128 -121 93z"/>
<path d="M10696 12529 c-14 -17 -26 -42 -26 -56 0 -30 50 -83 80 -83 30 0 80
53 80 83 0 38 -46 87 -80 87 -19 0 -36 -10 -54 -31z"/>
<path d="M13296 12459 c-29 -17 -75 -72 -82 -97 -8 -29 19 -70 54 -83 33 -13
87 1 126 32 46 37 30 117 -31 148 -27 14 -43 14 -67 0z"/>
<path d="M14623 12125 c-28 -19 -46 -81 -32 -106 24 -46 79 -51 120 -10 38 38
39 82 3 110 -32 25 -61 27 -91 6z"/>
<path d="M12250 11998 c-53 -28 -64 -90 -24 -137 20 -24 34 -31 60 -31 101 0
117 158 19 175 -16 3 -41 0 -55 -7z"/>
<path d="M10362 11973 c-22 -9 -44 -63 -37 -92 11 -42 34 -61 76 -61 71 0 105
85 54 135 -23 24 -61 31 -93 18z"/>
<path d="M11378 11970 c-24 -15 -41 -72 -29 -103 35 -91 161 -63 161 37 0 41
-37 76 -78 76 -20 0 -45 -5 -54 -10z"/>
<path d="M13829 11921 c-71 -72 -3 -182 93 -149 61 22 74 116 21 158 -37 29
-79 26 -114 -9z"/>
<path d="M15254 11866 c-59 -26 -69 -115 -17 -156 69 -54 156 5 139 94 -11 58
-66 86 -122 62z"/>
<path d="M12823 11768 c-34 -16 -34 -59 0 -95 27 -30 71 -30 91 -1 19 27 21
79 4 96 -15 15 -65 15 -95 0z"/>
<path d="M10733 11438 c-59 -67 -23 -138 69 -138 43 0 75 23 83 59 8 37 -7 66
-45 86 -42 22 -83 19 -107 -7z"/>
<path d="M14685 11395 c-29 -28 -32 -70 -10 -102 34 -49 137 -32 149 24 19 84
-79 139 -139 78z"/>
<path d="M13283 11340 c-72 -30 -63 -150 12 -161 61 -9 113 43 100 101 -11 50
-66 79 -112 60z"/>
<path d="M12116 11319 c-32 -25 -36 -79 -7 -108 25 -25 82 -36 110 -21 43 23
50 92 14 133 -22 24 -84 22 -117 -4z"/>
<path d="M14094 11245 c-20 -31 -11 -60 26 -75 61 -25 95 7 67 64 -14 29 -22
36 -47 36 -20 0 -34 -8 -46 -25z"/>
<path d="M11520 11230 c-24 -24 -26 -67 -4 -98 11 -16 25 -22 54 -22 29 0 43
6 54 22 36 51 5 118 -54 118 -17 0 -39 -9 -50 -20z"/>
<path d="M15173 11010 c-69 -28 -49 -143 25 -143 45 0 72 28 72 73 0 54 -48
89 -97 70z"/>
<path d="M10656 10728 c-22 -31 -20 -64 4 -88 58 -58 142 20 94 88 -10 15 -25
22 -49 22 -24 0 -39 -7 -49 -22z"/>
<path d="M11242 10723 c-21 -8 -43 -61 -36 -88 11 -44 68 -68 119 -49 18 7 45
55 45 79 0 29 -46 65 -82 64 -18 0 -39 -3 -46 -6z"/>
<path d="M6968 10656 c-229 -17 -420 -35 -424 -39 -10 -10 14 -341 31 -420 18
-88 37 -120 114 -201 76 -79 115 -101 191 -110 99 -12 182 34 222 123 l20 43
31 -30 c103 -100 287 -77 342 43 29 64 34 135 20 330 -8 105 -14 198 -15 207
0 14 -6 16 -29 12 -27 -6 -28 -4 -35 35 -5 34 -10 41 -29 40 -12 -1 -210 -16
-439 -33z m322 -311 c0 -74 -32 -115 -91 -115 -23 0 -26 6 -34 87 l-6 62 38 4
c98 10 93 12 93 -38z m-350 -45 c0 -77 -19 -115 -65 -130 -37 -12 -75 -6 -75
13 -1 7 -5 44 -10 82 -11 86 -3 95 87 95 l63 0 0 -60z"/>
<path d="M13733 10680 c-50 -20 -60 -105 -17 -139 15 -12 37 -21 49 -21 12 0
34 9 49 21 21 16 26 29 26 63 0 62 -52 99 -107 76z"/>
<path d="M14366 10661 c-21 -23 -24 -85 -5 -107 47 -57 139 -21 139 55 0 10
-9 30 -21 45 -26 33 -86 37 -113 7z"/>
<path d="M12085 10585 c-33 -32 -33 -84 -1 -121 50 -59 146 -20 146 60 0 75
-93 114 -145 61z"/>
<path d="M18243 10558 c-37 -40 -83 -122 -99 -173 -22 -72 -19 -191 7 -260 30
-81 158 -206 236 -230 93 -29 185 -6 251 63 31 33 67 90 113 182 35 70 85 130
110 130 16 0 9 -84 -11 -129 -11 -24 -36 -66 -55 -93 l-35 -48 102 -100 c116
-115 105 -115 177 -7 97 144 110 342 30 473 -24 40 -136 147 -175 167 -46 24
-125 31 -183 17 -81 -19 -129 -70 -202 -212 -83 -164 -129 -209 -129 -128 0
45 12 77 53 138 l29 43 -93 95 c-51 52 -96 94 -99 94 -4 0 -16 -10 -27 -22z"/>
<path d="M12802 10514 c-49 -34 -15 -124 46 -124 62 0 85 80 36 119 -32 25
-52 26 -82 5z"/>
<path d="M14873 10368 c-28 -13 -46 -57 -38 -91 10 -37 41 -61 81 -61 75 0
108 91 50 140 -29 26 -57 29 -93 12z"/>
<path d="M11015 10095 c-32 -31 -34 -91 -4 -129 16 -20 29 -26 60 -26 54 0 75
13 89 55 13 40 6 70 -23 103 -29 31 -90 30 -122 -3z"/>
<path d="M13833 10076 c-22 -19 -28 -32 -28 -66 0 -34 6 -47 28 -66 73 -63
170 12 132 103 -24 57 -84 70 -132 29z"/>
<path d="M11675 10056 c-61 -26 -73 -109 -25 -158 27 -27 36 -30 71 -25 50 7
77 30 85 74 9 46 -11 88 -51 107 -39 19 -41 19 -80 2z"/>
<path d="M13035 10048 c-33 -18 -45 -40 -45 -84 0 -34 5 -47 26 -63 36 -28
116 -29 144 -1 45 45 34 97 -28 129 -55 27 -75 31 -97 19z"/>
<path d="M14471 9934 c-12 -15 -21 -37 -21 -49 0 -38 37 -75 75 -75 38 0 75
37 75 75 0 38 -37 75 -75 75 -24 0 -39 -7 -54 -26z"/>
<path d="M12397 9850 c-39 -31 -37 -74 6 -100 38 -23 56 -25 81 -7 24 18 23
62 -1 95 -26 35 -52 38 -86 12z"/>
<path d="M7215 9444 c-195 -49 -323 -135 -383 -257 -80 -161 -38 -355 105
-493 134 -129 196 -155 352 -150 211 7 398 113 470 265 23 50 26 68 26 162 0
101 -2 109 -37 180 -52 105 -159 218 -245 261 -61 30 -76 33 -167 35 -56 1
-110 -1 -121 -3z m258 -284 c9 0 26 -9 37 -20 25 -25 27 -107 4 -156 -60 -126
-374 -212 -447 -123 -23 28 -21 89 4 140 26 52 76 89 189 138 38 16 121 30
160 25 19 -2 43 -3 53 -4z"/>
<path d="M13750 9407 c-46 -23 -62 -94 -29 -133 15 -19 85 -37 110 -29 60 19
80 105 34 150 -27 28 -74 33 -115 12z"/>
<path d="M11923 9390 c-49 -20 -60 -104 -18 -145 31 -32 75 -32 112 -1 22 19
28 32 28 66 0 68 -58 106 -122 80z"/>
<path d="M18160 9356 c-91 -25 -169 -92 -225 -191 -24 -43 -135 -347 -135
-370 0 -1 18 -7 40 -14 32 -9 40 -17 40 -36 0 -20 10 -26 78 -49 558 -181 764
-247 767 -244 1 2 21 59 44 128 73 222 83 331 40 446 -31 82 -175 226 -272
272 -126 61 -280 84 -377 58z m279 -297 c38 -11 83 -32 101 -48 29 -24 34 -35
38 -84 5 -62 -14 -147 -32 -147 -6 1 -103 31 -216 68 -132 44 -206 73 -208 83
-1 8 10 35 26 60 55 87 155 110 291 68z"/>
<path d="M12888 9245 c-43 -24 -60 -73 -42 -120 15 -38 119 -60 155 -32 43 33
50 93 16 132 -28 33 -90 42 -129 20z"/>
<path d="M7790 8146 c-129 -79 -257 -163 -284 -186 -182 -163 -172 -365 29
-565 45 -46 102 -92 130 -105 96 -48 225 -30 372 50 83 46 405 241 422 256 11
10 5 26 -35 93 -27 45 -54 81 -61 81 -6 0 -22 17 -34 38 -12 20 -24 39 -25 40
-1 2 -99 -55 -217 -127 -280 -171 -317 -188 -405 -182 -28 1 -46 43 -37 89 13
68 80 122 377 301 l186 113 -53 87 c-29 47 -57 85 -63 84 -6 -2 -21 15 -33 37
-13 22 -25 40 -28 40 -3 0 -112 -65 -241 -144z"/>
<path d="M17604 8155 c-111 -25 -211 -107 -268 -220 -36 -74 -49 -137 -44
-218 7 -115 62 -201 214 -337 182 -164 419 -207 579 -105 127 81 204 233 193
383 -7 98 -48 172 -159 286 -166 171 -353 248 -515 211z m266 -308 c106 -51
145 -107 138 -199 -3 -47 -10 -64 -34 -89 -57 -61 -132 -74 -230 -39 -148 52
-209 131 -182 237 10 43 57 99 96 115 38 17 156 3 212 -25z"/>
<path d="M13515 7794 c-145 -24 -393 -35 -568 -24 -89 6 -175 13 -192 16 l-30
5 -22 -98 c-12 -54 -34 -150 -49 -213 -27 -117 -37 -257 -21 -313 4 -15 24
-45 43 -67 33 -36 41 -40 85 -40 31 0 73 10 112 27 58 24 76 27 277 34 220 8
278 17 356 57 74 38 132 121 153 220 14 68 14 225 -1 330 -13 95 -2 90 -143
66z"/>
<path d="M8436 6930 c-174 -172 -316 -318 -316 -324 0 -10 72 -83 173 -176
l37 -34 130 129 c72 71 130 128 130 125 0 -3 -29 -93 -64 -200 l-63 -195 110
-112 111 -112 315 311 c174 171 317 314 319 317 4 10 -188 211 -201 211 -7 0
-66 -54 -132 -120 -66 -66 -123 -120 -127 -120 -4 0 1 24 11 53 10 28 38 114
61 189 l43 137 -61 68 c-33 37 -83 90 -110 116 l-49 49 -317 -312z"/>
<path d="M16735 7065 c-74 -20 -143 -62 -202 -123 -76 -78 -106 -145 -111
-247 -8 -150 43 -252 204 -406 99 -95 159 -136 243 -165 75 -27 120 -29 207
-11 110 23 223 118 282 237 24 48 27 67 27 150 0 91 -2 98 -43 185 -38 78 -56
102 -150 195 -180 177 -303 227 -457 185z m213 -280 c50 -21 108 -79 140 -140
48 -94 29 -191 -49 -243 -29 -20 -44 -23 -101 -20 -56 3 -74 9 -117 38 -67 46
-109 105 -123 174 -9 48 -8 63 7 102 25 66 81 104 152 104 29 0 70 -7 91 -15z"/>
<path d="M9605 6339 c-36 -56 -44 -74 -33 -81 7 -5 25 -16 41 -25 15 -10 27
-23 27 -29 0 -6 25 -27 55 -45 30 -18 55 -37 55 -41 0 -4 -83 -139 -185 -300
l-184 -293 39 -25 c21 -13 41 -32 43 -40 4 -14 148 -110 166 -110 5 0 71 100
148 223 224 355 238 377 244 377 3 0 45 -25 95 -56 49 -31 94 -58 100 -61 8
-3 58 67 91 129 2 4 -12 18 -31 30 -20 13 -36 30 -36 39 0 10 -105 82 -282
194 -155 97 -287 179 -294 182 -8 3 -32 -24 -59 -68z"/>
<path d="M15660 6233 c-129 -82 -234 -152 -233 -156 1 -4 107 -176 235 -382
148 -238 238 -373 246 -370 7 3 22 -11 33 -30 12 -19 26 -35 32 -35 7 0 49 24
93 53 l82 52 -89 140 c-49 77 -89 143 -89 147 0 4 52 40 117 80 64 40 121 76
126 80 13 8 -70 148 -88 148 -7 0 -24 18 -37 40 l-23 40 -120 -74 c-78 -49
-123 -72 -131 -66 -14 13 -49 78 -44 83 3 2 69 43 148 92 78 49 142 92 142 97
0 17 -82 138 -93 138 -7 0 -22 16 -35 35 -12 19 -26 35 -30 35 -4 0 -113 -66
-242 -147z"/>
<path d="M10717 5813 c-3 -5 -76 -186 -162 -403 -86 -217 -159 -400 -162 -407
-3 -7 12 -19 36 -29 32 -12 41 -21 39 -36 -3 -17 13 -26 92 -58 52 -21 96 -37
96 -37 6 7 324 816 324 824 0 6 -16 17 -36 23 -30 10 -35 16 -30 34 5 21 -3
26 -87 59 -99 40 -103 41 -110 30z"/>
<path d="M11387 5133 c-48 -236 -87 -433 -87 -440 0 -6 18 -14 40 -18 36 -6
39 -9 34 -34 -6 -27 -5 -27 84 -44 49 -9 96 -17 104 -17 12 0 23 38 48 165 18
91 34 165 35 165 1 0 69 -14 150 -30 82 -17 149 -29 150 -28 5 7 33 163 30
167 -2 2 -19 6 -37 10 -28 6 -33 11 -33 36 0 29 0 29 -105 50 l-105 21 3 35
c4 47 21 109 31 109 4 0 83 -15 174 -34 l167 -33 5 21 c33 146 33 144 -11 152
-32 6 -35 9 -32 37 l3 31 -260 53 c-143 28 -269 52 -281 53 -19 0 -26 -29
-107 -427z"/>
<path d="M13885 5516 c-76 -19 -90 -25 -88 -42 1 -10 46 -207 100 -437 l98
-418 27 5 c25 5 28 2 34 -29 3 -20 10 -37 14 -40 7 -5 528 113 539 121 2 2 -4
42 -14 88 -18 84 -18 85 -45 79 -26 -5 -28 -2 -35 36 -4 23 -10 41 -13 41 -4
0 -69 -14 -144 -32 -76 -17 -140 -29 -143 -26 -3 3 -37 140 -77 305 -69 293
-71 300 -94 295 -24 -4 -27 -1 -38 51 -7 31 -4 31 -121 3z"/>
<path d="M12611 5403 l-84 -4 7 -287 c7 -312 15 -377 61 -461 32 -59 136 -161
193 -190 55 -27 163 -44 229 -36 160 20 254 100 292 250 17 66 24 278 16 477
l-7 187 -32 3 c-27 3 -31 7 -34 36 l-3 32 -100 0 -99 0 -1 -297 c0 -257 -2
-304 -17 -343 -23 -59 -69 -90 -134 -90 -76 0 -79 12 -85 361 l-6 288 -31 3
c-28 3 -31 7 -34 41 -3 31 -7 37 -25 35 -12 -1 -60 -4 -106 -5z"/>
</g>
</svg>
